<?xml version="1.0" encoding="UTF-8"?>
<svg xmlns:xodm="http://www.corel.com/coreldraw/odm/2003" xmlns="http://www.w3.org/2000/svg" xmlns:xlink="http://www.w3.org/1999/xlink" version="1.1" id="Layer_1" x="0px" y="0px" viewBox="0 0 2500 573" style="enable-background:new 0 0 2500 573;" xml:space="preserve">
<g id="Layer_x0020_1" fill="#ffffff">
	<path d="M2069.7,170.4h71v-71h-71V170.4z M1692.3,288.7c13.6-36,48.3-61.6,89-61.6   c40.7,0,75.5,25.6,89,61.6H1692.3L1692.3,288.7z M1781.3,161c-89,0-161.2,72.2-161.2,161.2s72.2,161.2,161.2,161.2   c61.1,0,114.2-34,141.5-84l-59.5-28.9c-16.6,28.1-47.1,46.9-82,46.9c-44.1,0-81.2-30-92-70.8h184c0,0,0,0.1,0,0.1h67.4   c1.2-8,1.8-16.2,1.8-24.5C1942.5,233.2,1870.4,161,1781.3,161L1781.3,161L1781.3,161z M1961.3,474.8h71v-71h-71V474.8L1961.3,474.8   z M2069.7,474.8h71V201.6h-71V474.8z M2338.8,417.4c-52.6,0-95.2-42.6-95.2-95.2c0-52.6,42.6-95.2,95.2-95.2   c52.6,0,95.2,42.6,95.2,95.2C2434,374.8,2391.4,417.4,2338.8,417.4L2338.8,417.4z M2338.8,161c-89,0-161.2,72.2-161.2,161.2   s72.2,161.2,161.2,161.2c89,0,161.2-72.2,161.2-161.2S2427.8,161,2338.8,161L2338.8,161z M854.4,262.8v73.4h99.3   c-5.2,21-15.4,39.8-30.1,54.8c-22.2,22.7-52.9,35.1-86.5,35.1c-69.8,0-126.6-56.8-126.6-126.7c0-69.8,56.8-126.7,126.6-126.7   c37.4,0,71.8,16,95.6,43.6l56.8-46.5c-37.7-44.2-93.6-70.6-152.4-70.6c-110.3,0-200,89.8-200,200.1s89.7,200.1,200,200.1   c53.6,0,102.9-19.3,139-56.2c30.3-31,50.4-74.2,54.2-117.4c1.9-21.1,2.1-42.1,0.9-63.2L854.4,262.8L854.4,262.8z M1216,417.4   c-52.5,0-95.2-42.6-95.2-95.2c0-52.6,42.6-95.2,95.2-95.2c52.6,0,95.2,42.6,95.2,95.2C1311.2,374.8,1268.6,417.4,1216,417.4   L1216,417.4z M1311.2,192.4c-26.7-19.6-59.6-31.1-95.2-31.1c-89,0-161.1,72.2-161.1,161.2c0,89,72.2,161.2,161.1,161.2   c35.6,0,68.5-11.6,95.2-31.1v22.3h66V170.1h-66V192.4z M1518.8,99.4h-66v71h-39.5v62.3h39.5v163c0,16.8,2.1,31,6.3,42.1   c4.1,11,10.5,19.6,18,26.3c7.6,6.8,16.5,12.1,27.1,15.2c10.8,3,22.6,4.2,35.2,4.2c13,0,24.6-1.3,34.4-4c9.2-2.5,18-6,26.1-10.4   v-50.2c-13,5.6-25.2,7.7-39.1,8.3c-14.7,0.7-23.3-3.5-30.5-10.4c-7.6-7.2-11.6-16.6-11.6-32.3V232.7h81.2v-62.3h-81.2V99.4   L1518.8,99.4z"></path>
	<path d="M286.2,443.9c-86.9,0-157.4-70.5-157.4-157.4s70.5-157.4,157.4-157.4V0.2   C128.1,0.2,0,128.4,0,286.5c0,158.1,128.1,286.2,286.2,286.2c158,0,286.2-128.2,286.2-286.2H443.6   C443.6,373.5,373.1,443.9,286.2,443.9L286.2,443.9z"></path>
	<polygon  points="286.2,286.5 443.6,286.5 443.6,129.1 286.2,129.1  "></polygon>
</g>
</svg>
