<svg version="1.2" xmlns="http://www.w3.org/2000/svg" viewBox="0 0 500 210" width="500" height="210"><style>.a{fill:#fff}</style><path class="a" d="m84.9 70.1c0.6-29.1-15.9-54.4-24.5-60.5 0 0-0.8-0.4-0.7 0.7q0 0 0 0c-0.9 54.9-29.2 69.7-44.5 89.9-34 44.7-5.6 95.8 31.2 105.5 0.6 0.1 2.3 0.6 5.6 1.3 1.6 0.3 2.1-1.1 0.9-3.2-4.4-7.7-12.2-20.6-13.8-37.2-3.5-38.5 45.1-62.7 45.8-96.5z"/><path class="a" d="m103.4 88.7c-0.3-0.2-0.7-0.2-0.7 0.2-0.8 7-8 21.5-17.5 35-32 45.7-15.9 66.4-3.4 80.8 2.3 2.6 3.5 2.1 4.7 0.2 1.1-1.8 2.8-4.1 10.2-7.6 1.2-0.6 29.2-15.4 32.2-49.2 2.9-32.7-18.1-53.4-25.5-59.4z"/><path class="a" d="m269.7 80.4v120.2h-25.8v-48.6h-49.5v48.6h-26.4v-120.2h26.4v48.5h49.5v-48.5z"/><path class="a" d="m388.9 80.4v23.8h-12.3-24.7v96.4h-26.5v-96.4h-24.1-12.3v-23.8z"/><path class="a" d="m482.8 200.7l-30.3-41.8-30.1 41.6-29.4 0.1 44.6-61.4-42.1-58.8h29.4l87.2 120.3z"/><path class="a" d="m460.7 107.3l14.6 20.2 34.4-47.1h-29.2z"/></svg>